<?xml version="1.0" encoding="utf-8"?>
<!-- Generator: Adobe Illustrator 21.1.0, SVG Export Plug-In . SVG Version: 6.00 Build 0)  -->
<svg version="1.1" id="Layer_1" xmlns="http://www.w3.org/2000/svg" xmlns:xlink="http://www.w3.org/1999/xlink" x="0px" y="0px"
	 viewBox="0 0 543 427" style="enable-background:new 0 0 543 427;" xml:space="preserve">
<style type="text/css">
	.st0{fill:#689F63;}
	.st1{fill:#333333;}
	.st2{clip-path:url(#SVGID_2_);}
	.st3{fill:url(#SVGID_3_);}
	.st4{clip-path:url(#SVGID_5_);}
	.st5{fill:url(#SVGID_6_);}
	.st6{clip-path:url(#SVGID_8_);}
	.st7{fill:url(#SVGID_9_);}
</style>
<g transform="translate(50,90)">
	<path class="st0" d="M218.6,270.9c-1.5,0-2.9-0.4-4.2-1.1l-13.3-7.9c-2-1.1-1-1.5-0.4-1.7c2.7-0.9,3.2-1.1,6-2.8
		c0.3-0.2,0.7-0.1,1,0.1l10.2,6.1c0.4,0.2,0.9,0.2,1.2,0l39.9-23.1c0.4-0.2,0.6-0.6,0.6-1.1v-46.1c0-0.5-0.2-0.9-0.6-1.1l-39.9-23
		c-0.4-0.2-0.9-0.2-1.2,0l-39.9,23c-0.4,0.2-0.6,0.6-0.6,1.1v46.1c0,0.4,0.2,0.9,0.6,1.1l10.9,6.3c5.9,3,9.6-0.5,9.6-4.1v-45.5
		c0-0.6,0.5-1.1,1.2-1.1h5.1c0.6,0,1.1,0.5,1.1,1.1v45.5c0,7.9-4.3,12.5-11.8,12.5c-2.3,0-4.1,0-9.2-2.5l-10.5-6
		c-2.6-1.5-4.2-4.3-4.2-7.3v-46.1c0-3,1.6-5.8,4.2-7.3l40-23.1c2.5-1.4,5.9-1.4,8.4,0l39.9,23.1c2.6,1.5,4.2,4.3,4.2,7.3v46.1
		c0,3-1.6,5.8-4.2,7.3l-39.9,23.1C221.6,270.5,220.1,270.9,218.6,270.9"/>
	<path class="st0" d="M231,239.2c-17.5,0-21.1-8-21.1-14.8c0-0.6,0.5-1.1,1.2-1.1h5.2c0.6,0,1.1,0.4,1.1,1c0.8,5.3,3.1,7.9,13.7,7.9
		c8.4,0,12-1.9,12-6.4c0-2.6-1-4.5-14.1-5.8c-10.9-1.1-17.7-3.5-17.7-12.2c0-8.1,6.8-12.9,18.2-12.9c12.8,0,19.1,4.4,19.9,14
		c0,0.3-0.1,0.6-0.3,0.9c-0.2,0.2-0.5,0.4-0.9,0.4h-5.2c-0.5,0-1-0.4-1.1-0.9c-1.2-5.5-4.3-7.3-12.5-7.3c-9.2,0-10.3,3.2-10.3,5.6
		c0,2.9,1.3,3.8,13.7,5.4c12.3,1.6,18.1,3.9,18.1,12.6C250.8,234.2,243.6,239.2,231,239.2 M279.6,190.3h1.3c1.1,0,1.3-0.8,1.3-1.2
		c0-1.2-0.8-1.2-1.3-1.2h-1.4L279.6,190.3z M278,186.5h3c1,0,3,0,3,2.3c0,1.6-1,1.9-1.6,2.1c1.2,0.1,1.3,0.9,1.4,2
		c0.1,0.7,0.2,1.9,0.5,2.3h-1.8c0-0.4-0.3-2.6-0.3-2.7c-0.1-0.5-0.3-0.7-0.9-0.7h-1.5v3.5H278V186.5z M274.4,190.8
		c0,3.6,2.9,6.5,6.4,6.5c3.6,0,6.5-3,6.5-6.5c0-3.6-2.9-6.4-6.5-6.4C277.3,184.4,274.4,187.2,274.4,190.8 M288.5,190.9
		c0,4.2-3.5,7.7-7.7,7.7c-4.2,0-7.7-3.4-7.7-7.7c0-4.4,3.6-7.7,7.7-7.7C285,183.2,288.5,186.5,288.5,190.9"/>
	<path class="st1" d="M94.9,90.6c0-1.8-1-3.5-2.6-4.4L50,61.7c-0.7-0.4-1.5-0.6-2.3-0.7h-0.4c-0.8,0-1.6,0.2-2.3,0.7L2.6,86.1
		C1,87,0,88.7,0,90.6l0.1,65.6c0,0.9,0.5,1.8,1.3,2.2c0.8,0.5,1.8,0.5,2.5,0L29.1,144c1.6-0.9,2.6-2.6,2.6-4.4v-30.7
		c0-1.8,1-3.5,2.6-4.4l10.7-6.2c0.8-0.5,1.7-0.7,2.6-0.7c0.9,0,1.8,0.2,2.5,0.7l10.7,6.2c1.6,0.9,2.6,2.6,2.6,4.4v30.7
		c0,1.8,1,3.5,2.6,4.4L91,158.4c0.8,0.5,1.8,0.5,2.6,0c0.8-0.4,1.3-1.3,1.3-2.2L94.9,90.6z M294.8,124.7c0,0.5-0.2,0.9-0.6,1.1
		l-14.5,8.4c-0.4,0.2-0.9,0.2-1.3,0l-14.5-8.4c-0.4-0.2-0.6-0.7-0.6-1.1v-16.8c0-0.5,0.2-0.9,0.6-1.1l14.5-8.4
		c0.4-0.2,0.9-0.2,1.3,0l14.5,8.4c0.4,0.2,0.6,0.7,0.6,1.1L294.8,124.7z M298.7,0.3c-0.8-0.4-1.8-0.4-2.5,0
		c-0.8,0.5-1.3,1.3-1.3,2.2v65c0,0.6-0.3,1.2-0.9,1.6c-0.5,0.3-1.2,0.3-1.8,0L281.6,63c-1.6-0.9-3.5-0.9-5.1,0l-42.4,24.5
		c-1.6,0.9-2.6,2.6-2.6,4.4v48.9c0,1.8,1,3.5,2.6,4.4l42.4,24.5c1.6,0.9,3.5,0.9,5.1,0l42.4-24.5c1.6-0.9,2.6-2.6,2.6-4.4V18.9
		c0-1.9-1-3.6-2.6-4.5L298.7,0.3z M439.8,107.5c1.6-0.9,2.5-2.6,2.5-4.4V91.2c0-1.8-1-3.5-2.5-4.4l-42.1-24.4
		c-1.6-0.9-3.5-0.9-5.1,0l-42.4,24.5c-1.6,0.9-2.6,2.6-2.6,4.4v48.9c0,1.8,1,3.5,2.6,4.4l42.1,24c1.5,0.9,3.5,0.9,5,0l25.5-14.1
		c0.8-0.4,1.3-1.3,1.3-2.2s-0.5-1.8-1.3-2.2l-42.6-24.5c-0.8-0.4-1.3-1.3-1.3-2.2V108c0-0.9,0.5-1.8,1.3-2.2l13.3-7.7
		c0.8-0.5,1.8-0.5,2.5,0l13.3,7.7c0.8,0.4,1.3,1.3,1.3,2.2V120c0,0.9,0.5,1.8,1.3,2.2c0.8,0.4,1.8,0.4,2.6,0L439.8,107.5z"/>
	<path class="st0" d="M394.5,105.2c0.3-0.2,0.7-0.2,1,0l8.1,4.7c0.3,0.2,0.5,0.5,0.5,0.8v9.4c0,0.3-0.2,0.7-0.5,0.8l-8.1,4.7
		c-0.3,0.2-0.7,0.2-1,0l-8.1-4.7c-0.3-0.2-0.5-0.5-0.5-0.8v-9.4c0-0.3,0.2-0.7,0.5-0.8L394.5,105.2z"/>
	<g>
		<defs>
			<path id="SVGID_1_" d="M160.7,62.6l-42.1,24.3c-1.6,0.9-2.5,2.6-2.5,4.4V140c0,1.8,1,3.5,2.5,4.4l42.1,24.3
				c1.6,0.9,3.5,0.9,5.1,0l42.1-24.3c1.6-0.9,2.5-2.6,2.5-4.4V91.3c0-1.8-1-3.5-2.5-4.4l-42.1-24.3c-0.8-0.5-1.7-0.7-2.6-0.7
				S161.5,62.1,160.7,62.6"/>
		</defs>
		<clipPath id="SVGID_2_">
			<use xlink:href="#SVGID_1_"  style="overflow:visible;"/>
		</clipPath>
		<g transform="translate(-78.306 -164.016)" class="st2">
			
				<linearGradient id="SVGID_3_" gradientUnits="userSpaceOnUse" x1="-95.7171" y1="595.7726" x2="-94.118" y2="595.7726" gradientTransform="matrix(-38.0649 77.6521 77.6521 38.0649 -49634.4688 -15027.6963)">
				<stop  offset="0.3" style="stop-color:#3E863D"/>
				<stop  offset="0.5" style="stop-color:#55934F"/>
				<stop  offset="0.8" style="stop-color:#5AAD45"/>
			</linearGradient>
			<path class="st3" d="M331.4,246.8l-118.7-58.2l-60.9,124.2L270.5,371L331.4,246.8z"/>
		</g>
	</g>
	<g>
		<defs>
			<path id="SVGID_4_" d="M117.1,143.1c0.4,0.5,0.9,1,1.5,1.3l36.1,20.9l6,3.5c0.9,0.5,1.9,0.7,2.9,0.7c0.3,0,0.7-0.1,1-0.2
				l44.4-81.4c-0.3-0.4-0.7-0.7-1.2-0.9L180.4,71l-14.6-8.4c-0.4-0.2-0.9-0.4-1.3-0.5L117.1,143.1z"/>
		</defs>
		<clipPath id="SVGID_5_">
			<use xlink:href="#SVGID_4_"  style="overflow:visible;"/>
		</clipPath>
		<g transform="translate(-78.306 -164.016)" class="st4">
			
				<linearGradient id="SVGID_6_" gradientUnits="userSpaceOnUse" x1="-95.8108" y1="592.9101" x2="-94.7729" y2="592.9101" gradientTransform="matrix(106.8057 -78.9167 -78.9167 -106.8057 57209.6523 56085.8398)">
				<stop  offset="0.57" style="stop-color:#3E863D"/>
				<stop  offset="0.72" style="stop-color:#619857"/>
				<stop  offset="1" style="stop-color:#76AC64"/>
			</linearGradient>
			<path class="st5" d="M144.1,264l83.8,113.5l110.9-81.9l-83.8-113.4L144.1,264z"/>
		</g>
	</g>
	<g>
		<defs>
			<path id="SVGID_7_" d="M162.8,61.9c-0.7,0.1-1.4,0.3-2,0.7l-42,24.2l45.3,82.5c0.6-0.1,1.2-0.3,1.8-0.6l42.1-24.3
				c1.3-0.8,2.2-2,2.5-3.5L164.2,62c-0.3-0.1-0.7-0.1-1-0.1C163.1,61.9,162.9,61.9,162.8,61.9"/>
		</defs>
		<clipPath id="SVGID_8_">
			<use xlink:href="#SVGID_7_"  style="overflow:visible;"/>
		</clipPath>
		<g transform="translate(-78.306 -164.016)" class="st6">
			
				<linearGradient id="SVGID_9_" gradientUnits="userSpaceOnUse" x1="-94.3784" y1="593.0717" x2="-93.4373" y2="593.0717" gradientTransform="matrix(97.417 0 0 -97.417 9391.084 58054.9102)">
				<stop  offset="0.16" style="stop-color:#6BBF47"/>
				<stop  offset="0.38" style="stop-color:#79B461"/>
				<stop  offset="0.47" style="stop-color:#75AC64"/>
				<stop  offset="0.7" style="stop-color:#659E5A"/>
				<stop  offset="0.9" style="stop-color:#3E863D"/>
			</linearGradient>
			<path class="st7" d="M197,225.9v107.4h91.7V225.9L197,225.9z"/>
		</g>
	</g>
</g>
</svg>
